<svg width="24" height="16" viewBox="0 0 24 16" fill="none" xmlns="http://www.w3.org/2000/svg">
<path fill-rule="evenodd" clip-rule="evenodd" d="M1.62631 1.39202L1.75987 1.24176C2.24938 0.729884 2.97863 0.473778 3.94695 0.473778H20.5421C21.4546 0.473778 22.1558 0.696493 22.6457 1.14159L22.6624 1.15829C22.7625 1.24744 22.863 1.35295 22.9629 1.4755C22.9629 1.48685 22.9686 1.49787 22.9796 1.50889L22.9963 1.52558C23.3639 1.98203 23.5472 2.62747 23.5472 3.46224V12.9118C23.5362 14.9152 22.5345 15.9169 20.5421 15.9169H3.94695C1.95454 15.9059 0.958496 14.9042 0.958496 12.9118V3.46224C0.958496 2.56069 1.18121 1.87051 1.62631 1.39202ZM21.093 2.10992C20.9261 2.06551 20.7424 2.04848 20.5424 2.05983H3.94695C3.82441 2.04881 3.70754 2.05415 3.59635 2.07653L12.1944 10.7915L21.093 2.10992ZM2.54455 3.27859C2.53353 3.33435 2.53353 3.39545 2.54455 3.46224V12.9118C2.54455 13.8581 3.01202 14.3309 3.94695 14.3309H20.5421C21.488 14.3309 21.9612 13.8581 21.9612 12.9118V3.47893L12.7454 12.4777C12.5784 12.6336 12.3894 12.7114 12.1781 12.7114C11.9554 12.7004 11.766 12.6223 11.6104 12.4777L2.54455 3.27859Z" fill="url(#paint0_linear_2_2515)"/>
<path fill-rule="evenodd" clip-rule="evenodd" d="M1.62622 1.39174C1.64859 1.35834 1.67631 1.32495 1.7097 1.29156C1.72105 1.26919 1.73741 1.2525 1.75978 1.24148L1.62622 1.39174Z" fill="url(#paint1_linear_2_2515)"/>
<defs>
<linearGradient id="paint0_linear_2_2515" x1="12.2529" y1="0.473778" x2="12.2529" y2="15.9169" gradientUnits="userSpaceOnUse">
<stop stop-color="#F75665"/>
<stop offset="1" stop-color="#E32233"/>
</linearGradient>
<linearGradient id="paint1_linear_2_2515" x1="1.693" y1="1.24148" x2="1.693" y2="1.39174" gradientUnits="userSpaceOnUse">
<stop stop-color="#F75665"/>
<stop offset="1" stop-color="#E32233"/>
</linearGradient>
</defs>
</svg>
