<svg width="24" height="25" viewBox="0 0 24 25" fill="none" xmlns="http://www.w3.org/2000/svg">
<g clip-path="url(#clip0_2_2508)">
<path d="M12.8531 6.91987C14.0273 7.12143 15.1007 7.6769 15.9562 8.53003C16.807 9.38081 17.3648 10.4542 17.5664 11.6308C17.6437 12.0949 18.0422 12.43 18.5132 12.43C18.5742 12.43 18.6281 12.423 18.6656 12.416C18.6679 12.416 18.6703 12.416 18.6726 12.4136C18.9281 12.3714 19.1507 12.2332 19.2984 12.0199C19.4461 11.8089 19.5023 11.5558 19.4578 11.305C19.1906 9.73471 18.45 8.30503 17.3132 7.16831C16.1718 6.03159 14.7398 5.29096 13.1718 5.02612H13.1695C12.6468 4.9394 12.1523 5.29331 12.0656 5.81362C11.9836 6.33862 12.3351 6.83315 12.8531 6.91987Z" fill="url(#paint0_linear_2_2508)"/>
<path d="M18.7617 14.9656C18.2367 14.4195 17.6015 14.1312 16.9242 14.1312C16.2538 14.1312 15.614 14.4148 15.0773 14.9539L13.7437 16.2875C13.7109 16.2711 13.6781 16.2547 13.6476 16.2383L13.5796 16.2055C13.4367 16.1328 13.2726 16.0508 13.1367 15.9664C11.7679 15.0969 10.5187 13.9578 9.314 12.4813C8.79838 11.832 8.43744 11.2812 8.1726 10.7328C8.50776 10.4164 8.81947 10.1 9.11244 9.8C9.17807 9.73437 9.24369 9.66641 9.31166 9.59844C9.37729 9.53047 9.44526 9.4625 9.51322 9.39453C10.071 8.83672 10.3663 8.18984 10.364 7.52422C10.364 6.86094 10.0687 6.21641 9.51322 5.66328L8.21713 4.36719C8.14213 4.29219 8.06713 4.21719 7.99447 4.14219C7.92182 4.06719 7.84682 3.99219 7.77416 3.91953L7.67104 3.81406C7.41557 3.55391 7.15072 3.28438 6.88354 3.03828C6.36322 2.52031 5.73276 2.24609 5.06479 2.24609C4.39916 2.24609 3.76401 2.52031 3.2226 3.03828C3.22026 3.04063 3.21791 3.04062 3.21791 3.04297L1.59369 4.66484C0.930411 5.32812 0.553067 6.13672 0.471036 7.06719V7.06953C0.384317 8.17109 0.583536 9.33359 1.09916 10.7281C1.87963 12.8375 3.05151 14.7922 4.78354 16.8781C6.8976 19.3977 9.43588 21.3852 12.3257 22.7844H12.3281C13.4413 23.3164 14.9367 23.9398 16.6242 24.05C16.6265 24.05 16.6288 24.05 16.6312 24.05H16.6429C16.739 24.0547 16.8398 24.0594 16.9453 24.0594C18.1288 24.0594 19.1273 23.6305 19.9101 22.7844L19.9218 22.7727C19.9312 22.7633 19.9382 22.7563 19.9453 22.7469C20.1796 22.4656 20.4492 22.2055 20.7515 21.9148C20.9601 21.7156 21.1734 21.5117 21.3796 21.2914C21.9117 20.7359 22.1929 20.0891 22.1906 19.4211C22.1882 18.7508 21.9023 18.1109 21.3632 17.5719L18.7617 14.9656ZM18.5039 21.4977C18.0867 21.943 17.6085 22.1422 16.957 22.1422C16.896 22.1422 16.8281 22.1375 16.7578 22.1328C15.4078 22.0461 14.1304 21.5117 13.1695 21.0547C10.5163 19.7773 8.19135 17.9586 6.25776 15.6477C4.67572 13.7422 3.60932 11.9656 2.90385 10.0625C2.48197 8.93047 2.3226 8.05391 2.38822 7.22656C2.43041 6.74375 2.61088 6.35938 2.95541 6.01953L4.56791 4.40703C4.73666 4.24531 4.9101 4.15859 5.07182 4.15859C5.22416 4.15859 5.38588 4.24297 5.55697 4.40938C5.55932 4.41172 5.56166 4.41406 5.564 4.41641C5.84291 4.67891 6.11479 4.95547 6.40307 5.24609L6.41244 5.25547C6.55072 5.39844 6.7101 5.5625 6.87182 5.71953L8.16557 7.01328C8.54291 7.39062 8.54291 7.65547 8.16557 8.03281C8.02963 8.16875 7.89135 8.30703 7.75541 8.44766L7.65932 8.54609C7.29604 8.91406 6.95385 9.26094 6.58119 9.59141C6.57651 9.59609 6.56947 9.60078 6.56479 9.60781L6.54135 9.63125C6.14526 10.0273 6.03744 10.5008 6.2226 11.0352C6.22729 11.0492 6.23197 11.0609 6.23666 11.0727C6.23901 11.0797 6.24135 11.0867 6.24604 11.0938C6.59291 11.9305 7.08041 12.725 7.83041 13.6742C7.83041 13.6766 7.83276 13.6766 7.83276 13.6789C9.16401 15.3172 10.5679 16.5969 12.1265 17.5859C12.3304 17.7148 12.5413 17.8227 12.7382 17.9211C12.8835 17.9937 13.0476 18.0781 13.1835 18.1602C13.1929 18.1672 13.2023 18.1719 13.2117 18.1766L13.2187 18.1813C13.2328 18.1883 13.2468 18.1977 13.2632 18.2047C13.4671 18.3078 13.6687 18.357 13.8773 18.357C14.2335 18.357 14.5617 18.2094 14.8265 17.9305L16.4484 16.3086C16.5656 16.1914 16.7484 16.0508 16.9406 16.0508C17.1187 16.0508 17.2921 16.1891 17.4046 16.3063C17.407 16.3086 17.407 16.3086 17.4093 16.3109L20.0273 18.9289C20.2851 19.1867 20.4609 19.4914 20.0062 19.9695L20.0039 19.9719C19.8609 20.1266 19.7085 20.2742 19.5468 20.4313C19.5117 20.4641 19.4765 20.4992 19.4414 20.5344C19.1132 20.8414 18.7992 21.1461 18.5039 21.4977Z" fill="url(#paint1_linear_2_2508)"/>
<path d="M23.5336 11.1174C23.1024 8.57914 21.9024 6.26352 20.0625 4.42367C18.2157 2.58149 15.9 1.38149 13.3594 0.952581C12.8368 0.865862 12.3422 1.21977 12.2555 1.74008C12.1688 2.26274 12.5227 2.75727 13.0407 2.84399C15.1899 3.20961 17.1469 4.2268 18.7032 5.78071C20.2594 7.33696 21.2743 9.29399 21.6399 11.4409C21.7172 11.9049 22.1157 12.2401 22.5868 12.2401C22.5891 12.2401 22.5914 12.2401 22.5938 12.2401C22.6524 12.2401 22.7016 12.2331 22.7391 12.226C22.7414 12.226 22.7438 12.226 22.7461 12.2237C23.0016 12.1815 23.2243 12.0432 23.3719 11.8299C23.5219 11.6213 23.5782 11.3682 23.5336 11.1174Z" fill="url(#paint2_linear_2_2508)"/>
</g>
<defs>
<linearGradient id="paint0_linear_2_2508" x1="15.7632" y1="5.01305" x2="15.7632" y2="12.43" gradientUnits="userSpaceOnUse">
<stop stop-color="#F75665"/>
<stop offset="1" stop-color="#E52637"/>
</linearGradient>
<linearGradient id="paint1_linear_2_2508" x1="11.321" y1="2.24609" x2="11.321" y2="24.0594" gradientUnits="userSpaceOnUse">
<stop stop-color="#F75665"/>
<stop offset="1" stop-color="#E52637"/>
</linearGradient>
<linearGradient id="paint2_linear_2_2508" x1="17.8955" y1="0.939507" x2="17.8955" y2="12.2401" gradientUnits="userSpaceOnUse">
<stop stop-color="#F75665"/>
<stop offset="1" stop-color="#E52637"/>
</linearGradient>
<clipPath id="clip0_2_2508">
<rect width="24" height="24" fill="white" transform="translate(0 0.5)"/>
</clipPath>
</defs>
</svg>
